<mxfile host="drawio-plugin" modified="2023-05-18T08:15:42.910Z" agent="5.0 (X11; Linux x86_64) AppleWebKit/537.36 (KHTML, like Gecko) Chrome/104.0.5112.102 Safari/537.36" etag="PbxWuIOpUYPSCi6cXkp6" version="20.5.3" type="embed"><diagram id="C5RBs43oDa-KdzZeNtuy" name="Page-1"><mxGraphModel dx="1571" dy="408" grid="1" gridSize="10" guides="1" tooltips="1" connect="1" arrows="1" fold="1" page="1" pageScale="1" pageWidth="827" pageHeight="1169" math="0" shadow="0"><root><mxCell id="WIyWlLk6GJQsqaUBKTNV-0"/><mxCell id="WIyWlLk6GJQsqaUBKTNV-1" parent="WIyWlLk6GJQsqaUBKTNV-0"/><mxCell id="WIyWlLk6GJQsqaUBKTNV-2" value="" style="rounded=0;html=1;jettySize=auto;orthogonalLoop=1;fontSize=11;endArrow=block;endFill=0;endSize=8;strokeWidth=1;shadow=0;labelBackgroundColor=none;edgeStyle=orthogonalEdgeStyle;" parent="WIyWlLk6GJQsqaUBKTNV-1" source="WIyWlLk6GJQsqaUBKTNV-3" target="WIyWlLk6GJQsqaUBKTNV-6" edge="1"><mxGeometry relative="1" as="geometry"/></mxCell><mxCell id="WIyWlLk6GJQsqaUBKTNV-3" value="The user enters username (mobile number or email)." style="rounded=1;whiteSpace=wrap;html=1;fontSize=12;glass=0;strokeWidth=1;shadow=0;" parent="WIyWlLk6GJQsqaUBKTNV-1" vertex="1"><mxGeometry x="150" y="60" width="130" height="60" as="geometry"/></mxCell><mxCell id="WIyWlLk6GJQsqaUBKTNV-4" value="Yes" style="rounded=0;html=1;jettySize=auto;orthogonalLoop=1;fontSize=11;endArrow=block;endFill=0;endSize=8;strokeWidth=1;shadow=0;labelBackgroundColor=none;edgeStyle=orthogonalEdgeStyle;" parent="WIyWlLk6GJQsqaUBKTNV-1" source="WIyWlLk6GJQsqaUBKTNV-6" target="rwXvebvKZAYbm4YkxcV8-3" edge="1"><mxGeometry y="20" relative="1" as="geometry"><mxPoint as="offset"/><mxPoint x="150" y="300" as="targetPoint"/></mxGeometry></mxCell><mxCell id="WIyWlLk6GJQsqaUBKTNV-5" value="No" style="edgeStyle=orthogonalEdgeStyle;rounded=0;html=1;jettySize=auto;orthogonalLoop=1;fontSize=11;endArrow=block;endFill=0;endSize=8;strokeWidth=1;shadow=0;labelBackgroundColor=none;" parent="WIyWlLk6GJQsqaUBKTNV-1" source="WIyWlLk6GJQsqaUBKTNV-6" target="WIyWlLk6GJQsqaUBKTNV-7" edge="1"><mxGeometry y="10" relative="1" as="geometry"><mxPoint as="offset"/></mxGeometry></mxCell><mxCell id="WIyWlLk6GJQsqaUBKTNV-6" value="user exist?" style="rhombus;whiteSpace=wrap;html=1;shadow=0;fontFamily=Helvetica;fontSize=12;align=center;strokeWidth=1;spacing=6;spacingTop=-4;" parent="WIyWlLk6GJQsqaUBKTNV-1" vertex="1"><mxGeometry x="140" y="150" width="150" height="110" as="geometry"/></mxCell><mxCell id="rwXvebvKZAYbm4YkxcV8-21" value="" style="edgeStyle=orthogonalEdgeStyle;rounded=0;orthogonalLoop=1;jettySize=auto;html=1;" parent="WIyWlLk6GJQsqaUBKTNV-1" source="WIyWlLk6GJQsqaUBKTNV-7" target="WIyWlLk6GJQsqaUBKTNV-12" edge="1"><mxGeometry relative="1" as="geometry"/></mxCell><mxCell id="WIyWlLk6GJQsqaUBKTNV-7" value="send verify code" style="rounded=1;whiteSpace=wrap;html=1;fontSize=12;glass=0;strokeWidth=1;shadow=0;" parent="WIyWlLk6GJQsqaUBKTNV-1" vertex="1"><mxGeometry x="400" y="185" width="120" height="40" as="geometry"/></mxCell><mxCell id="rwXvebvKZAYbm4YkxcV8-23" value="" style="edgeStyle=orthogonalEdgeStyle;rounded=0;orthogonalLoop=1;jettySize=auto;html=1;" parent="WIyWlLk6GJQsqaUBKTNV-1" source="WIyWlLk6GJQsqaUBKTNV-12" target="rwXvebvKZAYbm4YkxcV8-22" edge="1"><mxGeometry relative="1" as="geometry"/></mxCell><mxCell id="WIyWlLk6GJQsqaUBKTNV-12" value="Transfer to the register page" style="rounded=1;whiteSpace=wrap;html=1;fontSize=12;glass=0;strokeWidth=1;shadow=0;" parent="WIyWlLk6GJQsqaUBKTNV-1" vertex="1"><mxGeometry x="400" y="270" width="120" height="40" as="geometry"/></mxCell><mxCell id="rwXvebvKZAYbm4YkxcV8-5" value="otp" style="edgeStyle=orthogonalEdgeStyle;rounded=0;orthogonalLoop=1;jettySize=auto;html=1;" parent="WIyWlLk6GJQsqaUBKTNV-1" source="rwXvebvKZAYbm4YkxcV8-3" target="rwXvebvKZAYbm4YkxcV8-4" edge="1"><mxGeometry x="-0.0811" y="-10" relative="1" as="geometry"><mxPoint as="offset"/></mxGeometry></mxCell><mxCell id="rwXvebvKZAYbm4YkxcV8-7" value="password" style="edgeStyle=orthogonalEdgeStyle;rounded=0;orthogonalLoop=1;jettySize=auto;html=1;" parent="WIyWlLk6GJQsqaUBKTNV-1" source="rwXvebvKZAYbm4YkxcV8-3" target="rwXvebvKZAYbm4YkxcV8-6" edge="1"><mxGeometry relative="1" as="geometry"/></mxCell><mxCell id="rwXvebvKZAYbm4YkxcV8-3" value="&lt;font style=&quot;font-size: 10px;&quot;&gt;How did the user login last time?&lt;/font&gt;" style="rhombus;whiteSpace=wrap;html=1;" parent="WIyWlLk6GJQsqaUBKTNV-1" vertex="1"><mxGeometry x="142.5" y="285" width="145" height="110" as="geometry"/></mxCell><mxCell id="rwXvebvKZAYbm4YkxcV8-11" value="" style="edgeStyle=orthogonalEdgeStyle;rounded=0;orthogonalLoop=1;jettySize=auto;html=1;" parent="WIyWlLk6GJQsqaUBKTNV-1" source="rwXvebvKZAYbm4YkxcV8-4" target="rwXvebvKZAYbm4YkxcV8-10" edge="1"><mxGeometry relative="1" as="geometry"/></mxCell><mxCell id="rwXvebvKZAYbm4YkxcV8-4" value="send verify code" style="whiteSpace=wrap;html=1;gradientColor=none;rounded=1;" parent="WIyWlLk6GJQsqaUBKTNV-1" vertex="1"><mxGeometry x="-290" y="320" width="120" height="40" as="geometry"/></mxCell><mxCell id="rwXvebvKZAYbm4YkxcV8-6" value="Transfer to the login page with pass" style="rounded=1;whiteSpace=wrap;html=1;" parent="WIyWlLk6GJQsqaUBKTNV-1" vertex="1"><mxGeometry x="155" y="500" width="120" height="30" as="geometry"/></mxCell><mxCell id="rwXvebvKZAYbm4YkxcV8-13" value="" style="edgeStyle=orthogonalEdgeStyle;rounded=0;orthogonalLoop=1;jettySize=auto;html=1;entryX=0.5;entryY=0;entryDx=0;entryDy=0;" parent="WIyWlLk6GJQsqaUBKTNV-1" source="rwXvebvKZAYbm4YkxcV8-10" target="rwXvebvKZAYbm4YkxcV8-15" edge="1"><mxGeometry relative="1" as="geometry"><mxPoint x="-230" y="540" as="targetPoint"/><Array as="points"/></mxGeometry></mxCell><mxCell id="rwXvebvKZAYbm4YkxcV8-10" value="Transfer to the login page with otp" style="whiteSpace=wrap;html=1;gradientColor=none;rounded=1;" parent="WIyWlLk6GJQsqaUBKTNV-1" vertex="1"><mxGeometry x="-290" y="500" width="120" height="40" as="geometry"/></mxCell><mxCell id="rwXvebvKZAYbm4YkxcV8-20" value="yes" style="edgeStyle=orthogonalEdgeStyle;rounded=0;orthogonalLoop=1;jettySize=auto;html=1;entryX=0.5;entryY=0;entryDx=0;entryDy=0;" parent="WIyWlLk6GJQsqaUBKTNV-1" source="rwXvebvKZAYbm4YkxcV8-15" target="rwXvebvKZAYbm4YkxcV8-19" edge="1"><mxGeometry relative="1" as="geometry"><mxPoint x="-230" y="820" as="targetPoint"/><Array as="points"/></mxGeometry></mxCell><mxCell id="rwXvebvKZAYbm4YkxcV8-28" value="no" style="edgeStyle=orthogonalEdgeStyle;rounded=0;orthogonalLoop=1;jettySize=auto;html=1;" parent="WIyWlLk6GJQsqaUBKTNV-1" source="rwXvebvKZAYbm4YkxcV8-15" target="rwXvebvKZAYbm4YkxcV8-27" edge="1"><mxGeometry relative="1" as="geometry"/></mxCell><mxCell id="rwXvebvKZAYbm4YkxcV8-15" value="is otp valid?" style="rhombus;whiteSpace=wrap;html=1;" parent="WIyWlLk6GJQsqaUBKTNV-1" vertex="1"><mxGeometry x="-270" y="610" width="80" height="80" as="geometry"/></mxCell><mxCell id="rwXvebvKZAYbm4YkxcV8-16" value="" style="edgeStyle=orthogonalEdgeStyle;rounded=0;orthogonalLoop=1;jettySize=auto;html=1;entryX=0.5;entryY=0;entryDx=0;entryDy=0;" parent="WIyWlLk6GJQsqaUBKTNV-1" source="rwXvebvKZAYbm4YkxcV8-6" target="rwXvebvKZAYbm4YkxcV8-32" edge="1"><mxGeometry relative="1" as="geometry"><mxPoint y="480" as="sourcePoint"/><mxPoint x="140" y="550" as="targetPoint"/><Array as="points"><mxPoint x="215" y="515"/><mxPoint x="215" y="610"/></Array></mxGeometry></mxCell><mxCell id="rwXvebvKZAYbm4YkxcV8-19" value="generate token and refresh token" style="rounded=1;whiteSpace=wrap;html=1;" parent="WIyWlLk6GJQsqaUBKTNV-1" vertex="1"><mxGeometry x="-290" y="920" width="120" height="30" as="geometry"/></mxCell><mxCell id="rwXvebvKZAYbm4YkxcV8-26" value="yes" style="edgeStyle=orthogonalEdgeStyle;rounded=0;orthogonalLoop=1;jettySize=auto;html=1;" parent="WIyWlLk6GJQsqaUBKTNV-1" source="rwXvebvKZAYbm4YkxcV8-22" target="rwXvebvKZAYbm4YkxcV8-25" edge="1"><mxGeometry relative="1" as="geometry"/></mxCell><mxCell id="rwXvebvKZAYbm4YkxcV8-22" value="is verify code valid?" style="rhombus;whiteSpace=wrap;html=1;rounded=1;glass=0;strokeWidth=1;shadow=0;" parent="WIyWlLk6GJQsqaUBKTNV-1" vertex="1"><mxGeometry x="420" y="370" width="80" height="80" as="geometry"/></mxCell><mxCell id="rwXvebvKZAYbm4YkxcV8-24" value="no" style="edgeStyle=orthogonalEdgeStyle;rounded=0;orthogonalLoop=1;jettySize=auto;html=1;exitX=1;exitY=0.5;exitDx=0;exitDy=0;entryX=1.023;entryY=0.589;entryDx=0;entryDy=0;entryPerimeter=0;" parent="WIyWlLk6GJQsqaUBKTNV-1" source="rwXvebvKZAYbm4YkxcV8-22" target="WIyWlLk6GJQsqaUBKTNV-12" edge="1"><mxGeometry x="0.1233" relative="1" as="geometry"><mxPoint x="510" y="410" as="sourcePoint"/><mxPoint x="590" y="350" as="targetPoint"/><Array as="points"><mxPoint x="560" y="410"/><mxPoint x="560" y="294"/></Array><mxPoint as="offset"/></mxGeometry></mxCell><mxCell id="rwXvebvKZAYbm4YkxcV8-25" value="register user" style="whiteSpace=wrap;html=1;rounded=1;glass=0;strokeWidth=1;shadow=0;" parent="WIyWlLk6GJQsqaUBKTNV-1" vertex="1"><mxGeometry x="400" y="540" width="120" height="30" as="geometry"/></mxCell><mxCell id="rwXvebvKZAYbm4YkxcV8-31" value="yes" style="edgeStyle=orthogonalEdgeStyle;rounded=0;orthogonalLoop=1;jettySize=auto;html=1;" parent="WIyWlLk6GJQsqaUBKTNV-1" source="rwXvebvKZAYbm4YkxcV8-27" target="rwXvebvKZAYbm4YkxcV8-30" edge="1"><mxGeometry relative="1" as="geometry"/></mxCell><mxCell id="rwXvebvKZAYbm4YkxcV8-27" value="The number of unsuccessful logins for IP is more than n?" style="rhombus;whiteSpace=wrap;html=1;" parent="WIyWlLk6GJQsqaUBKTNV-1" vertex="1"><mxGeometry x="-90" y="610" width="170" height="80" as="geometry"/></mxCell><mxCell id="rwXvebvKZAYbm4YkxcV8-29" value="no" style="edgeStyle=orthogonalEdgeStyle;rounded=0;orthogonalLoop=1;jettySize=auto;html=1;exitX=0.5;exitY=0;exitDx=0;exitDy=0;entryX=1;entryY=0.5;entryDx=0;entryDy=0;" parent="WIyWlLk6GJQsqaUBKTNV-1" source="rwXvebvKZAYbm4YkxcV8-27" target="rwXvebvKZAYbm4YkxcV8-10" edge="1"><mxGeometry relative="1" as="geometry"><mxPoint x="-400" y="450" as="sourcePoint"/><mxPoint x="-300" y="530" as="targetPoint"/><Array as="points"><mxPoint x="-5" y="520"/></Array></mxGeometry></mxCell><mxCell id="rwXvebvKZAYbm4YkxcV8-30" value="Blocking the user for n day" style="whiteSpace=wrap;html=1;rounded=1;" parent="WIyWlLk6GJQsqaUBKTNV-1" vertex="1"><mxGeometry x="-65" y="770" width="120" height="60" as="geometry"/></mxCell><mxCell id="rwXvebvKZAYbm4YkxcV8-32" value="is pass valid?" style="rhombus;whiteSpace=wrap;html=1;" parent="WIyWlLk6GJQsqaUBKTNV-1" vertex="1"><mxGeometry x="175" y="610" width="80" height="80" as="geometry"/></mxCell><mxCell id="rwXvebvKZAYbm4YkxcV8-34" value="no" style="edgeStyle=orthogonalEdgeStyle;rounded=0;orthogonalLoop=1;jettySize=auto;html=1;exitX=0;exitY=0.5;exitDx=0;exitDy=0;" parent="WIyWlLk6GJQsqaUBKTNV-1" source="rwXvebvKZAYbm4YkxcV8-32" target="rwXvebvKZAYbm4YkxcV8-27" edge="1"><mxGeometry relative="1" as="geometry"><mxPoint x="170" y="650" as="sourcePoint"/><mxPoint x="130" y="735" as="targetPoint"/><Array as="points"><mxPoint x="150" y="650"/><mxPoint x="150" y="650"/></Array></mxGeometry></mxCell><mxCell id="rwXvebvKZAYbm4YkxcV8-35" value="no" style="edgeStyle=orthogonalEdgeStyle;rounded=0;orthogonalLoop=1;jettySize=auto;html=1;entryX=0;entryY=0.5;entryDx=0;entryDy=0;" parent="WIyWlLk6GJQsqaUBKTNV-1" source="rwXvebvKZAYbm4YkxcV8-27" target="rwXvebvKZAYbm4YkxcV8-6" edge="1"><mxGeometry relative="1" as="geometry"><mxPoint x="5" y="620" as="sourcePoint"/><mxPoint x="-160" y="530" as="targetPoint"/><Array as="points"><mxPoint x="5" y="520"/><mxPoint x="155" y="520"/></Array></mxGeometry></mxCell><mxCell id="rwXvebvKZAYbm4YkxcV8-36" value="yes" style="edgeStyle=orthogonalEdgeStyle;rounded=0;orthogonalLoop=1;jettySize=auto;html=1;exitX=0.443;exitY=0.995;exitDx=0;exitDy=0;exitPerimeter=0;entryX=1;entryY=0.5;entryDx=0;entryDy=0;" parent="WIyWlLk6GJQsqaUBKTNV-1" source="rwXvebvKZAYbm4YkxcV8-32" target="rwXvebvKZAYbm4YkxcV8-19" edge="1"><mxGeometry relative="1" as="geometry"><mxPoint x="214.64" y="720" as="sourcePoint"/><mxPoint x="215" y="910" as="targetPoint"/><Array as="points"><mxPoint x="215" y="690"/><mxPoint x="215" y="935"/></Array></mxGeometry></mxCell><mxCell id="0" value="login or register user" style="text;html=1;align=center;verticalAlign=middle;resizable=0;points=[];autosize=1;strokeColor=none;fillColor=none;" vertex="1" parent="WIyWlLk6GJQsqaUBKTNV-1"><mxGeometry x="150" y="15" width="130" height="30" as="geometry"/></mxCell></root></mxGraphModel></diagram></mxfile>